<svg width="128" height="128" viewBox="0 0 256 256" xmlns="http://www.w3.org/2000/svg">
  
  <rect width="256" height="256" fill="#060810"></rect>
  <line x1="0" y1="64" x2="256" y2="64" stroke="#00ffff" stroke-width="0.4" opacity="0.07"></line>
  <line x1="0" y1="128" x2="256" y2="128" stroke="#00ffff" stroke-width="0.4" opacity="0.07"></line>
  <line x1="0" y1="192" x2="256" y2="192" stroke="#00ffff" stroke-width="0.4" opacity="0.07"></line>
  <line x1="64" y1="0" x2="64" y2="256" stroke="#00ffff" stroke-width="0.4" opacity="0.07"></line>
  <line x1="128" y1="0" x2="128" y2="256" stroke="#00ffff" stroke-width="0.4" opacity="0.07"></line>
  <line x1="192" y1="0" x2="192" y2="256" stroke="#00ffff" stroke-width="0.4" opacity="0.07"></line>
  <path d="M16,36 L16,16 L36,16" fill="none" stroke="#ff3366" stroke-width="2" opacity="0.7"></path>
  <path d="M240,36 L240,16 L220,16" fill="none" stroke="#ff3366" stroke-width="2" opacity="0.7"></path>
  <path d="M16,220 L16,240 L36,240" fill="none" stroke="#00e5cc" stroke-width="2" opacity="0.7"></path>
  <path d="M240,220 L240,240 L220,240" fill="none" stroke="#00e5cc" stroke-width="2" opacity="0.7"></path>
  <text x="128" y="96" text-anchor="middle" font-family="&#39;Courier New&#39;, Courier, monospace" font-size="26" font-weight="400" fill="#ff3366" opacity="0.9" letter-spacing="10">0x</text>
  <text class="gc" x="128" y="166" text-anchor="middle" font-family="&#39;Courier New&#39;, Courier, monospace" font-size="66" font-weight="700" fill="#00e5cc" opacity="0">D1g5</text>
  <text class="gr" x="128" y="166" text-anchor="middle" font-family="&#39;Courier New&#39;, Courier, monospace" font-size="66" font-weight="700" fill="#ff3366" opacity="0">D1g5</text>
  <text class="gm" x="128" y="166" text-anchor="middle" font-family="&#39;Courier New&#39;, Courier, monospace" font-size="66" font-weight="700" fill="#f8fafc" letter-spacing="1">D1g5</text>
</svg>